<svg width="42" height="29" viewBox="0 0 42 29" fill="none" xmlns="http://www.w3.org/2000/svg">
<path d="M20.9559 0.166091C20.604 0.173944 20.2609 0.383644 20.2822 0.791611C20.2979 1.09136 20.555 1.3583 20.7079 1.59664C20.3775 1.75481 20.1169 2.10403 19.8452 2.34997C18.9266 3.18148 17.9346 4.09355 18.1314 5.46082C18.3121 6.71675 19.7702 7.73204 18.7287 9.04319C18.5836 9.22585 18.4028 9.38509 18.1981 9.49317C17.1677 10.0369 15.6848 9.47103 14.8254 8.80012C14.2875 8.38014 14.0205 7.74189 13.5312 7.27578C12.5814 6.371 11.0324 6.02143 9.84485 6.60077C9.47539 6.78101 9.14147 7.07022 8.88264 7.39291C7.02906 9.70372 8.16965 13.2017 6.49418 15.6445C5.5111 17.0778 3.93802 17.9027 2.51135 18.7761C1.61711 19.3235 0.72313 19.6293 0.317709 20.7162C-0.300065 22.3724 -0.0915379 24.2516 1.6093 25.0721C1.94238 25.2328 2.3382 25.3272 2.7074 25.3013C3.51255 25.2447 3.99488 24.7291 4.62901 24.2986C4.88981 26.1111 6.94356 26.8299 8.43305 26.2125C9.499 25.7706 10.0317 25.0388 10.59 24.0571C11.2841 25.5631 13.7651 27.1632 15.1263 25.506C15.3198 25.2705 15.4487 24.9871 15.5538 24.7011C15.7278 24.2282 15.8592 23.7216 15.7945 23.2118C15.6839 22.3402 15.0778 21.5444 14.8064 20.7162C14.4916 19.7552 14.5065 18.5484 14.7876 17.5766C14.9706 16.9439 15.3981 16.3637 15.8843 15.9384C16.1305 15.7229 16.4646 15.551 16.7863 15.7016C17.4119 15.9945 17.8011 16.79 18.0287 17.4156C18.5832 18.94 18.8388 20.6335 18.1975 22.1653C17.9377 22.7857 17.182 23.0404 16.8565 23.6546C16.4257 24.4677 16.6134 25.742 17.4137 26.2521C17.9241 26.5774 18.5215 26.5984 19.1 26.6735C19.1 27.1478 19.1208 27.707 19.3728 28.1225C20.0108 29.1749 21.4222 29.2647 22.2766 28.4778C22.6012 28.1789 22.752 27.8307 22.8333 27.398C22.8667 27.2206 22.838 26.8329 22.9669 26.7034C23.1139 26.5558 23.5663 26.5944 23.7668 26.5526C24.3614 26.4287 24.9223 26.1071 25.1609 25.5062C25.4971 24.6593 25.3882 23.7499 24.7457 23.0926C24.4734 22.8141 24.0598 22.6345 23.8615 22.2845C23.3348 21.3548 23.3488 20.2128 23.5031 19.1867C23.6495 18.2133 23.9357 17.1137 24.5382 16.3288C24.7739 16.0219 25.1139 15.6191 25.5316 15.6484C26.1138 15.6894 26.6012 16.3954 26.8907 16.8521C27.5751 17.9315 27.5836 19.745 27.1315 20.9175C26.7888 21.8063 26.1753 22.6689 26.1989 23.6546C26.2293 24.9319 27.0545 26.2149 28.3945 26.1883C28.9282 26.1777 29.4619 25.9279 29.9239 25.6759C30.2968 25.4727 30.6246 25.2093 30.8782 24.8621C31.0703 24.5992 31.2044 24.2683 31.4533 24.0571C31.5591 24.6663 32.0841 25.295 32.5514 25.6519C33.8468 26.6413 35.6996 26.825 36.7867 25.4256C37.0394 25.1003 37.2994 24.7249 37.3359 24.2986C37.9975 24.7232 38.4607 25.2671 39.2968 25.3033C39.7176 25.3216 40.1481 25.1933 40.5125 24.9828C42.0364 24.1024 42.2972 22.3948 41.7113 20.7967C41.3062 19.6908 40.4489 19.3565 39.532 18.8001C38.1018 17.9321 36.5045 17.1195 35.521 15.6848C34.3855 14.0286 34.4709 11.9572 34.1124 10.0495C33.936 9.11095 33.7577 8.28325 33.1612 7.51367C32.8911 7.16509 32.5846 6.86953 32.1985 6.65957C30.9985 6.00685 29.4124 6.34339 28.4337 7.27578C27.9577 7.72917 27.702 8.35698 27.1787 8.76552C26.2926 9.45737 24.7896 10.0582 23.7276 9.47292C23.5352 9.3669 23.3734 9.21661 23.2362 9.04325C22.2044 7.7401 23.7553 6.67681 23.8778 5.42059C24.0058 4.10746 23.0697 3.24442 22.1982 2.43511C21.9125 2.16977 21.6406 1.82031 21.2962 1.63693C21.4759 1.35786 21.6961 1.11043 21.6832 0.751379C21.6688 0.352119 21.3079 0.158204 20.9559 0.166091ZM21.0143 0.525491C21.2592 0.536884 21.4842 0.697386 21.2793 0.992904C21.2013 1.10547 21.1035 1.20466 21.0217 1.31489C20.9165 1.27787 20.8416 1.23528 20.7645 1.14947C20.7129 1.09199 20.6598 1.0251 20.6296 0.952603C20.5044 0.651735 20.7693 0.514087 21.0143 0.525491ZM20.9824 1.91628C21.3183 1.90706 21.8247 2.50142 22.0413 2.72371C22.8032 3.50565 23.8935 4.36427 23.4888 5.62182C23.0923 6.85415 21.6956 6.93429 21.0217 7.91619H20.9432C20.2969 6.85555 18.6993 6.87092 18.4516 5.46082C18.2403 4.25835 19.3 3.41605 20.0412 2.68301C20.2519 2.47461 20.6703 1.92484 20.9824 1.91628ZM31.0178 6.66916C31.3165 6.68337 31.61 6.74601 31.8847 6.86468C32.9982 7.34565 33.5071 8.50598 33.7202 9.64699C34.0386 11.3521 34.0533 13.1169 34.6567 14.7589C35.5431 17.1707 38.2281 18.4056 40.2771 19.5614C41.2387 20.1038 41.6274 21.292 41.6478 22.3665C41.6584 22.9322 41.5007 23.6418 41.1583 24.0972C40.2171 25.3496 38.4528 25.1393 37.5545 23.9698C37.323 23.6685 37.4561 22.984 37.3971 22.6081C37.3464 22.2846 37.0837 21.5087 36.6306 21.767C35.8703 22.2003 36.9003 23.3922 37.0518 23.8961C37.1261 24.1433 36.9802 24.4831 36.8747 24.7011C36.5608 25.3496 36.0597 25.8554 35.375 26.0525C33.8538 26.4905 32.1932 25.3007 31.7059 23.8558C31.5512 23.397 32.0424 22.7806 32.066 22.286C32.0776 22.0446 31.9267 21.7368 31.6494 21.7808C31.1037 21.8676 31.0979 22.761 31.179 23.1716C31.2113 23.3351 31.3031 23.5291 31.2507 23.6948C31.1781 23.924 30.9941 24.1403 30.8651 24.3389C30.1425 25.4513 28.0959 26.6585 27.0517 25.2244C26.6616 24.6888 26.4382 23.8768 26.5234 23.2118C26.6245 22.4224 27.1852 21.6619 27.4511 20.9175C27.9772 19.4447 27.8275 17.4655 26.8205 16.2483C26.4936 15.8531 26.1266 15.4564 25.6101 15.3496C24.8535 15.1931 24.1862 16.1763 23.9095 16.7716C23.1124 18.486 22.8799 20.3604 23.4531 22.1653C22.538 21.5037 21.8589 20.4907 21.4697 19.4281C21.3853 19.1974 21.2987 18.2935 20.983 18.317C20.6944 18.3385 20.5688 19.3067 20.4847 19.5489C20.125 20.5853 19.3889 21.5714 18.5118 22.2056C19.1669 20.4625 18.9099 18.4313 18.0899 16.7716C17.7658 16.1155 17.1055 15.1662 16.2764 15.3723C15.7842 15.4947 15.3976 15.9379 15.0924 16.3288C14.1732 17.5063 14.0176 19.4756 14.5138 20.8772C14.8021 21.6917 15.3547 22.4683 15.4753 23.3326C15.558 23.9255 15.3217 24.6994 14.9912 25.184C13.9707 26.6803 11.8485 25.4489 11.137 24.2986C11.0126 24.0975 10.8173 23.8851 10.7503 23.6546C10.7048 23.4979 10.7853 23.3247 10.817 23.1716C10.8979 22.7808 10.9176 21.8238 10.3547 21.7762C10.0765 21.7527 9.92756 22.0396 9.92638 22.286C9.92403 22.7731 10.434 23.3784 10.3112 23.8156C9.8495 25.4591 7.81332 26.6647 6.23693 25.8956C5.69718 25.6322 4.73305 24.5581 4.95278 23.8558C5.11086 23.3507 6.1271 22.2023 5.37394 21.7576C4.93091 21.496 4.64689 22.2942 4.59308 22.6081C4.52877 22.9832 4.6717 23.6774 4.45511 23.976C4.30942 24.1768 4.07738 24.3357 3.88389 24.4848C2.2598 25.7364 0.3206 24.2371 0.356512 22.3262C0.372297 21.4864 0.641488 20.4672 1.25993 19.883C1.83832 19.3366 2.73025 19.003 3.41333 18.606C4.51116 17.968 5.62481 17.2346 6.46087 16.2483C7.69028 14.7979 7.86071 12.845 8.07401 11.0156C8.22598 9.71215 8.43264 8.23913 9.45275 7.32406C10.5569 6.33366 12.2774 6.55127 13.3352 7.52065C13.9668 8.09943 14.3476 8.88146 15.0215 9.44188C16.0501 10.2973 17.3507 10.516 18.4726 11.1715C20.038 12.0861 20.7663 13.7331 20.904 15.5237H21.0609C21.1332 13.7953 22.0402 12.0302 23.5315 11.1891C24.6745 10.5444 25.99 10.3028 27.0219 9.43276C27.646 8.90655 27.991 8.2033 28.5548 7.64127C29.1787 7.01941 30.1216 6.62651 31.0178 6.66916ZM19.2177 6.9904C19.661 7.26887 20.3674 7.47575 20.6766 7.91679C20.8917 8.22354 20.8603 8.6325 21.0217 8.96273C21.095 8.65046 21.1096 8.31919 21.2758 8.03694C21.5623 7.55018 22.3001 7.26369 22.7864 7.03063C22.3918 8.27582 22.7778 9.63148 24.159 9.97306C24.654 10.0955 25.0796 9.96885 25.5708 9.92874V9.96904C24.1853 10.5525 22.7718 11 21.8514 12.3036C21.4495 12.8729 21.3341 13.5817 20.9824 14.1552C20.7588 13.4825 20.5196 12.8409 20.1009 12.2633C19.1541 10.9574 17.6378 10.487 16.2372 9.8885V9.84827C17.521 10.1504 19.1063 10.0084 19.3955 8.35892C19.4813 7.86943 19.1776 7.44131 19.2177 6.9904ZM30.1389 8.66643C30.0047 8.66324 29.8674 8.67382 29.7278 8.69968C28.3629 8.95226 28.1745 10.6164 27.5316 11.6194C27.2857 12.0029 26.9562 12.5305 26.4336 12.501C26.1356 12.4842 25.7688 12.0588 25.4656 12.3613C25.2348 12.5917 25.5381 12.8673 25.7669 12.8998C26.2208 12.9643 26.8396 12.8417 27.2179 12.5765C28.0408 11.9998 28.3176 10.8636 28.7925 10.0093C29.1809 9.31042 29.7436 8.88649 30.5513 9.12064C30.7503 9.17827 30.9344 9.28736 31.1004 9.41191C31.8555 9.97812 32.0308 11.0153 32.1755 11.9011C32.3917 13.2244 32.593 14.7171 33.2749 15.886C34.6154 18.1839 37.156 19.1059 39.2968 20.4186C40.2329 20.9925 40.9658 21.934 40.4779 23.091C40.3364 23.4268 39.9234 23.9068 39.5093 23.8089C39.3273 23.7659 39.1712 23.5623 39.0222 23.455C38.8285 23.3156 38.3371 23.0735 38.2261 23.4539C38.0226 24.1517 39.3556 24.2216 39.7281 24.1452C40.9638 23.8915 41.4152 22.1601 40.7168 21.1588C40.2901 20.5471 39.5952 20.1995 38.983 19.8225C37.457 18.8827 35.6407 18.2547 34.3981 16.892C33.3852 15.7813 32.9822 14.331 32.7249 12.8669C32.5745 12.0105 32.5146 11.1087 32.2059 10.2908C31.8651 9.38798 31.0782 8.68856 30.1389 8.66623V8.66643ZM11.9509 8.66825C11.832 8.667 11.7055 8.67678 11.5704 8.69856C10.4392 8.8813 9.83071 9.80462 9.60137 10.8948C9.2687 12.4761 9.17468 14.133 8.46258 15.6042C7.50196 17.5889 5.44261 18.4577 3.64864 19.4559C2.85512 19.8975 1.93139 20.352 1.34773 21.0784C0.413711 22.2409 1.18381 24.3243 2.74659 24.171C3.01652 24.1445 4.12812 23.8361 3.742 23.3453C3.44117 22.963 2.86122 23.6046 2.62894 23.7511C2.33243 23.938 1.9246 23.6397 1.73983 23.4128C0.954588 22.4488 1.51204 21.2929 2.35443 20.6508C4.49555 19.019 7.19953 18.4252 8.6909 15.9665C9.30896 14.9475 9.57884 13.6001 9.75567 12.4243C9.90109 11.4576 10.0092 10.2828 10.7484 9.57345C10.9179 9.41075 11.1218 9.27165 11.3351 9.17751C13.2583 8.32876 13.519 11.3685 14.4731 12.2999C14.8782 12.6955 15.911 13.1471 16.4718 12.8543C16.7278 12.7206 16.696 12.3969 16.4331 12.2932C16.1242 12.1713 15.8831 12.4308 15.6098 12.4995C15.3706 12.5596 15.0358 12.3775 14.8682 12.2155C13.7822 11.1648 13.7335 8.68628 11.9509 8.66825ZM16.3548 12.5451V12.6256L16.0411 12.5853L16.3548 12.5451ZM25.6493 12.5451H26.0414V12.5853L25.6493 12.6256V12.5451ZM21.0217 18.9049C21.2132 20.3634 22.339 21.5645 23.3747 22.4752C23.8545 22.8971 24.4927 23.1458 24.812 23.735C25.1747 24.4042 25.0759 25.554 24.3943 25.9894C23.9735 26.2582 23.3827 26.2709 22.9041 26.2709C22.8937 26.1375 22.8802 25.9935 22.8304 25.8684C22.4913 25.0168 21.3727 26.1303 22.2376 26.5559C22.351 26.6117 22.4666 26.6273 22.5903 26.6332C22.5903 27.0599 22.6112 27.5917 22.3608 27.9599C21.7583 28.8454 20.3439 28.8019 19.7036 28.0002C19.5255 27.7771 19.2483 26.9723 19.4243 26.6971C19.6244 26.3842 20.1719 26.4895 20.0715 25.9086C20.0119 25.5636 19.5947 25.4534 19.3395 25.6532C19.1533 25.7988 19.1096 26.0454 19.1 26.2709C18.5972 26.2709 18.0027 26.2436 17.5712 25.9446C16.9439 25.5099 16.8512 24.425 17.152 23.7753C17.4094 23.2196 17.9743 22.9577 18.4334 22.6078C18.9058 22.2478 19.3203 21.7959 19.726 21.3602C20.1343 20.9217 20.4592 20.3875 20.6912 19.8307C20.8138 19.5365 20.8609 19.1751 21.0217 18.9049ZM36.7869 22.0042C37.0744 22.3634 37.1006 22.8035 37.1006 23.252H37.0614C36.93 22.9283 36.5386 22.3407 36.7869 22.0042ZM5.25649 22.0444C5.34171 22.4469 5.10613 22.8591 4.94272 23.2117C4.8104 22.8881 4.93867 22.2052 5.25649 22.0444ZM31.6886 22.0444C31.7974 22.4221 31.6455 22.8125 31.5318 23.1715H31.4926C31.4641 22.8006 31.3817 22.3196 31.6886 22.0444ZM10.3155 22.0847C10.5989 22.3406 10.5261 22.7851 10.5116 23.1313H10.4723C10.3728 22.8175 10.1816 22.4123 10.3155 22.0847ZM3.41333 23.5338L3.09956 23.7753V23.735L3.41333 23.5338ZM38.63 23.574L38.8653 23.735V23.7753L38.63 23.574ZM19.5908 25.8766C19.7373 25.9051 19.8812 26.1602 19.6085 26.2813C19.5465 26.3088 19.4796 26.3074 19.4138 26.3111C19.4138 26.2317 19.4089 26.1493 19.4181 26.0702C19.4316 25.9529 19.4763 25.8959 19.5291 25.8793C19.5489 25.8731 19.5699 25.8725 19.5908 25.8766ZM22.4267 25.8779C22.4898 25.8883 22.5501 25.9441 22.5768 26.0702C22.5935 26.1486 22.5896 26.2314 22.5903 26.3111C22.5231 26.3039 22.4599 26.3004 22.3974 26.2705C22.126 26.1409 22.2268 25.9198 22.3638 25.8818C22.3844 25.8761 22.4057 25.8745 22.4267 25.8779Z" fill="black"/>
</svg>