<?xml version="1.0" encoding="utf-8"?>
<svg viewBox="0 0 236.746 236.746" xmlns="http://www.w3.org/2000/svg">
  <g transform="matrix(1, 0, 0, 1, -242.1689910888672, -103.61500549316406)">
    <ellipse style="stroke: rgb(0, 0, 0); fill: rgb(255, 215, 0);" cx="360.542" cy="221.988" rx="118.373" ry="118.373"/>
    <path d="M 360.617 136.063 C 358.807 136.103 357.043 137.174 357.152 139.256 C 357.233 140.785 358.555 142.148 359.342 143.364 C 357.642 144.171 356.302 145.953 354.905 147.209 C 350.18 151.452 345.079 156.107 346.091 163.085 C 347.02 169.494 354.519 174.676 349.163 181.367 C 348.417 182.299 347.487 183.112 346.434 183.664 C 341.135 186.439 333.508 183.551 329.089 180.127 C 326.322 177.983 324.949 174.726 322.433 172.347 C 317.548 167.73 309.582 165.946 303.474 168.902 C 301.574 169.822 299.857 171.298 298.526 172.945 C 288.993 184.738 294.859 202.59 286.242 215.056 C 281.186 222.372 273.096 226.581 265.759 231.038 C 261.16 233.832 256.563 235.393 254.478 240.94 C 251.3 249.393 252.373 258.983 261.12 263.17 C 262.833 263.99 264.869 264.472 266.767 264.34 C 270.908 264.051 273.389 261.42 276.65 259.223 C 277.991 268.473 288.553 272.141 296.214 268.99 C 301.696 266.735 304.435 263 307.306 257.99 C 310.876 265.676 323.636 273.842 330.636 265.384 C 331.631 264.183 332.294 262.737 332.835 261.277 C 333.729 258.863 334.405 256.278 334.073 253.676 C 333.504 249.228 330.387 245.167 328.991 240.94 C 327.372 236.036 327.449 229.877 328.894 224.917 C 329.835 221.688 332.034 218.727 334.534 216.556 C 335.801 215.457 337.519 214.579 339.173 215.348 C 342.391 216.843 344.392 220.903 345.563 224.095 C 348.414 231.875 349.729 240.518 346.431 248.336 C 345.095 251.502 341.208 252.802 339.534 255.936 C 337.319 260.086 338.284 266.589 342.4 269.192 C 345.024 270.853 348.097 270.96 351.072 271.343 C 351.072 273.764 351.179 276.617 352.475 278.738 C 355.757 284.109 363.015 284.567 367.409 280.551 C 369.079 279.025 369.854 277.248 370.272 275.04 C 370.444 274.135 370.296 272.156 370.96 271.495 C 371.716 270.742 374.042 270.939 375.074 270.726 C 378.131 270.093 381.016 268.452 382.243 265.385 C 383.972 261.063 383.412 256.422 380.108 253.068 C 378.707 251.647 376.58 250.73 375.56 248.944 C 372.851 244.199 372.923 238.371 373.717 233.134 C 374.47 228.166 375.942 222.555 379.041 218.549 C 380.253 216.982 382.001 214.927 384.149 215.077 C 387.144 215.286 389.65 218.889 391.139 221.219 C 394.659 226.728 394.702 235.984 392.377 241.967 C 390.615 246.503 387.46 250.906 387.581 255.936 C 387.738 262.455 391.982 269.002 398.873 268.867 C 401.617 268.813 404.362 267.538 406.739 266.252 C 408.656 265.214 410.342 263.87 411.646 262.099 C 412.634 260.757 413.324 259.068 414.604 257.99 C 415.148 261.099 417.848 264.308 420.251 266.129 C 426.913 271.179 436.442 272.116 442.033 264.974 C 443.333 263.314 444.669 261.398 444.857 259.223 C 448.26 261.39 450.642 264.165 454.942 264.35 C 457.106 264.443 459.32 263.789 461.194 262.714 C 469.031 258.221 470.372 249.506 467.359 241.351 C 465.276 235.707 460.867 234 456.151 231.161 C 448.796 226.731 440.581 222.584 435.523 215.262 C 429.684 206.81 430.123 196.238 428.279 186.503 C 427.372 181.713 426.455 177.489 423.388 173.561 C 421.998 171.782 420.422 170.274 418.436 169.202 C 412.265 165.871 404.108 167.589 399.074 172.347 C 396.627 174.661 395.312 177.865 392.62 179.95 C 388.063 183.481 380.333 186.547 374.872 183.56 C 373.882 183.019 373.05 182.252 372.344 181.367 C 367.038 174.717 375.014 169.29 375.644 162.879 C 376.302 156.178 371.488 151.773 367.006 147.643 C 365.537 146.289 364.139 144.506 362.367 143.57 C 363.292 142.145 364.424 140.883 364.357 139.05 C 364.283 137.013 362.427 136.023 360.617 136.063 Z M 360.917 137.897 C 362.177 137.956 363.334 138.775 362.28 140.283 C 361.879 140.857 361.376 141.364 360.956 141.926 C 360.415 141.737 360.029 141.52 359.633 141.082 C 359.367 140.789 359.094 140.447 358.939 140.077 C 358.295 138.542 359.658 137.839 360.917 137.897 Z M 360.754 144.995 C 362.481 144.948 365.085 147.982 366.199 149.116 C 370.118 153.107 375.725 157.488 373.644 163.906 C 371.605 170.195 364.421 170.604 360.956 175.616 L 360.552 175.616 C 357.228 170.203 349.011 170.281 347.738 163.085 C 346.651 156.948 352.101 152.649 355.913 148.908 C 356.997 147.845 359.148 145.039 360.754 144.995 Z M 412.364 169.251 C 413.9 169.324 415.41 169.644 416.823 170.249 C 422.549 172.704 425.166 178.625 426.262 184.449 C 427.9 193.151 427.975 202.157 431.079 210.537 C 435.637 222.846 449.445 229.148 459.984 235.046 C 464.929 237.814 466.928 243.879 467.033 249.362 C 467.087 252.249 466.276 255.871 464.516 258.195 C 459.675 264.587 450.601 263.513 445.981 257.544 C 444.791 256.007 445.475 252.514 445.172 250.595 C 444.911 248.944 443.56 244.985 441.23 246.303 C 437.32 248.514 442.617 254.597 443.396 257.169 C 443.778 258.43 443.028 260.164 442.485 261.277 C 440.871 264.586 438.294 267.167 434.773 268.174 C 426.949 270.409 418.409 264.337 415.903 256.963 C 415.107 254.621 417.634 251.476 417.755 248.952 C 417.814 247.719 417.038 246.148 415.612 246.373 C 412.806 246.816 412.776 251.376 413.193 253.471 C 413.359 254.306 413.832 255.295 413.562 256.141 C 413.188 257.311 412.242 258.415 411.579 259.428 C 407.863 265.106 397.337 271.266 391.967 263.947 C 389.961 261.214 388.812 257.07 389.25 253.676 C 389.77 249.647 392.654 245.766 394.021 241.967 C 396.727 234.451 395.957 224.35 390.778 218.138 C 389.097 216.121 387.209 214.097 384.553 213.552 C 380.662 212.753 377.23 217.771 375.807 220.808 C 371.708 229.558 370.512 239.124 373.46 248.336 C 368.753 244.959 365.261 239.789 363.26 234.366 C 362.825 233.189 362.38 228.576 360.756 228.696 C 359.272 228.805 358.626 233.746 358.194 234.982 C 356.344 240.272 352.558 245.305 348.047 248.541 C 351.416 239.645 350.095 229.279 345.878 220.808 C 344.211 217.46 340.815 212.616 336.551 213.667 C 334.019 214.292 332.031 216.554 330.462 218.549 C 325.734 224.558 324.934 234.609 327.486 241.762 C 328.969 245.919 331.811 249.882 332.431 254.293 C 332.856 257.319 331.641 261.268 329.941 263.741 C 324.693 271.377 313.779 265.093 310.119 259.223 C 309.48 258.197 308.475 257.112 308.131 255.936 C 307.897 255.136 308.311 254.253 308.474 253.471 C 308.89 251.477 308.991 246.593 306.096 246.349 C 304.666 246.23 303.9 247.694 303.894 248.952 C 303.882 251.437 306.504 254.527 305.872 256.758 C 303.498 265.145 293.026 271.298 284.919 267.373 C 282.143 266.029 277.185 260.547 278.315 256.963 C 279.128 254.385 284.354 248.525 280.481 246.255 C 278.203 244.92 276.742 248.993 276.465 250.595 C 276.134 252.51 276.87 256.053 275.756 257.576 C 275.006 258.601 273.813 259.412 272.818 260.173 C 264.465 266.56 254.492 258.909 254.677 249.157 C 254.758 244.871 256.143 239.669 259.323 236.688 C 262.298 233.899 266.885 232.196 270.398 230.171 C 276.044 226.914 281.771 223.171 286.071 218.138 C 292.394 210.736 293.27 200.769 294.367 191.433 C 295.149 184.781 296.212 177.264 301.458 172.594 C 307.136 167.539 315.985 168.65 321.425 173.597 C 324.673 176.551 326.631 180.542 330.097 183.402 C 335.387 187.767 342.076 188.884 347.845 192.229 C 355.896 196.896 359.642 205.302 360.35 214.44 L 361.157 214.44 C 361.529 205.619 366.194 196.611 373.863 192.319 C 379.742 189.029 386.507 187.795 391.814 183.355 C 395.023 180.67 396.798 177.081 399.698 174.212 C 402.906 171.039 407.755 169.034 412.364 169.251 Z M 351.677 170.891 C 353.957 172.312 357.59 173.368 359.181 175.619 C 360.287 177.184 360.125 179.271 360.956 180.956 C 361.333 179.363 361.408 177.672 362.262 176.232 C 363.736 173.748 367.53 172.286 370.031 171.096 C 368.002 177.451 369.987 184.369 377.09 186.113 C 379.636 186.737 381.825 186.091 384.351 185.886 L 384.351 186.092 C 377.225 189.07 369.956 191.353 365.223 198.006 C 363.156 200.912 362.562 204.529 360.754 207.456 C 359.603 204.023 358.374 200.749 356.22 197.801 C 351.35 191.136 343.552 188.736 336.349 185.681 L 336.349 185.476 C 342.952 187.018 351.105 186.293 352.592 177.875 C 353.034 175.377 351.471 173.192 351.677 170.891 Z M 407.844 179.444 C 407.154 179.428 406.448 179.482 405.73 179.614 C 398.71 180.903 397.742 189.396 394.435 194.515 C 393.17 196.472 391.476 199.164 388.788 199.014 C 387.256 198.928 385.369 196.757 383.81 198.301 C 382.623 199.477 384.183 200.883 385.36 201.049 C 387.694 201.378 390.876 200.753 392.822 199.399 C 397.054 196.456 398.477 190.657 400.919 186.297 C 402.917 182.731 405.811 180.567 409.965 181.762 C 410.988 182.056 411.935 182.613 412.789 183.249 C 416.672 186.138 417.574 191.432 418.318 195.952 C 419.43 202.706 420.465 210.324 423.972 216.289 C 430.866 228.016 443.932 232.722 454.942 239.421 C 459.756 242.35 463.525 247.155 461.016 253.06 C 460.288 254.773 458.164 257.223 456.035 256.723 C 455.099 256.504 454.296 255.465 453.53 254.917 C 452.533 254.206 450.006 252.97 449.435 254.912 C 448.389 258.473 455.244 258.83 457.16 258.44 C 463.515 257.145 465.837 248.309 462.245 243.199 C 460.05 240.077 456.476 238.303 453.328 236.379 C 445.48 231.583 436.139 228.377 429.748 221.423 C 424.539 215.755 422.467 208.353 421.144 200.881 C 420.37 196.511 420.062 191.908 418.474 187.734 C 416.722 183.127 412.675 179.557 407.844 179.443 L 407.844 179.444 Z M 314.305 179.454 C 313.694 179.447 313.043 179.497 312.349 179.608 C 306.531 180.541 303.402 185.253 302.222 190.816 C 300.511 198.887 300.028 207.343 296.365 214.851 C 291.425 224.98 280.834 229.414 271.608 234.508 C 267.527 236.762 262.776 239.081 259.775 242.789 C 254.971 248.721 258.932 259.354 266.969 258.571 C 268.357 258.436 274.074 256.862 272.088 254.358 C 270.541 252.406 267.558 255.681 266.364 256.429 C 264.839 257.383 262.742 255.86 261.791 254.702 C 257.753 249.782 260.62 243.883 264.952 240.607 C 275.964 232.278 289.87 229.248 297.54 216.7 C 300.718 211.499 302.106 204.623 303.016 198.623 C 303.764 193.689 304.32 187.694 308.121 184.073 C 308.993 183.243 310.042 182.533 311.138 182.053 C 321.029 177.721 322.37 193.234 327.277 197.988 C 329.36 200.006 334.672 202.311 337.556 200.817 C 338.873 200.134 338.709 198.483 337.357 197.953 C 335.768 197.331 334.528 198.656 333.122 199.006 C 331.893 199.313 330.17 198.384 329.309 197.557 C 323.724 192.194 323.473 179.546 314.305 179.454 Z M 336.954 199.239 L 336.954 199.65 L 335.341 199.444 L 336.954 199.239 Z M 384.755 199.239 L 386.771 199.239 L 386.771 199.444 L 384.755 199.65 L 384.755 199.239 Z M 360.956 231.696 C 361.941 239.139 367.73 245.269 373.057 249.917 C 375.524 252.07 378.807 253.34 380.449 256.346 C 382.314 259.762 381.806 265.629 378.301 267.851 C 376.136 269.223 373.098 269.288 370.636 269.288 C 370.583 268.608 370.514 267.872 370.257 267.234 C 368.514 262.888 362.761 268.57 367.209 270.743 C 367.792 271.027 368.386 271.107 369.023 271.137 C 369.023 273.315 369.13 276.029 367.842 277.908 C 364.744 282.427 357.47 282.205 354.177 278.113 C 353.261 276.975 351.835 272.868 352.74 271.463 C 353.77 269.866 356.585 270.404 356.069 267.439 C 355.762 265.678 353.617 265.116 352.304 266.136 C 351.346 266.879 351.122 268.138 351.072 269.288 C 348.486 269.288 345.429 269.149 343.21 267.623 C 339.983 265.404 339.507 259.868 341.054 256.552 C 342.378 253.716 345.283 252.379 347.644 250.594 C 350.074 248.757 352.205 246.45 354.292 244.227 C 356.392 241.989 358.063 239.262 359.256 236.421 C 359.886 234.919 360.129 233.075 360.956 231.696 Z M 442.034 247.513 C 443.512 249.347 443.647 251.593 443.647 253.882 L 443.445 253.882 C 442.77 252.229 440.757 249.23 442.034 247.513 Z M 279.877 247.719 C 280.315 249.773 279.104 251.876 278.263 253.676 C 277.583 252.024 278.243 248.539 279.877 247.719 Z M 415.814 247.719 C 416.373 249.646 415.593 251.638 415.007 253.471 L 414.806 253.471 C 414.659 251.578 414.236 249.123 415.814 247.719 Z M 305.895 247.924 C 307.352 249.23 306.978 251.499 306.903 253.265 L 306.701 253.265 C 306.19 251.664 305.206 249.596 305.895 247.924 Z M 270.398 255.319 L 268.784 256.552 L 268.784 256.346 L 270.398 255.319 Z M 451.513 255.525 L 452.723 256.346 L 452.723 256.552 L 451.513 255.525 Z M 353.597 267.276 C 354.35 267.421 355.09 268.723 353.688 269.341 C 353.369 269.482 353.025 269.475 352.686 269.494 C 352.686 269.088 352.661 268.667 352.708 268.264 C 352.778 267.665 353.008 267.375 353.279 267.29 C 353.381 267.258 353.489 267.255 353.597 267.276 Z M 368.181 267.283 C 368.506 267.336 368.816 267.62 368.953 268.264 C 369.039 268.664 369.019 269.087 369.023 269.493 C 368.677 269.457 368.352 269.439 368.031 269.286 C 366.635 268.625 367.153 267.496 367.858 267.302 C 367.964 267.273 368.073 267.265 368.181 267.283 Z" fill="black"/>
  </g>
</svg>