<svg width="216" height="148" viewBox="0 0 216 148" fill="none" xmlns="http://www.w3.org/2000/svg">
<path d="M107.773 0.847638C105.963 0.887717 104.199 1.95791 104.308 4.03994C104.389 5.56972 105.711 6.93203 106.498 8.14838C104.798 8.95558 103.458 10.7378 102.061 11.9929C97.3367 16.2365 92.2351 20.8912 93.247 27.869C94.1765 34.2786 101.675 39.46 96.3191 46.1514C95.573 47.0836 94.6432 47.8963 93.59 48.4479C88.2913 51.2229 80.6645 48.3349 76.2451 44.911C73.4788 42.7676 72.1056 39.5103 69.5892 37.1316C64.7045 32.5141 56.7381 30.7301 50.6307 33.6867C48.7306 34.6066 47.0133 36.0825 45.6821 37.7293C36.1494 49.5224 42.0153 67.374 33.3987 79.8408C28.3428 87.1559 20.2527 91.3654 12.9155 95.8227C8.31658 98.6166 3.71895 100.177 1.63393 105.724C-1.54319 114.177 -0.470766 123.767 8.2764 127.954C9.98939 128.774 12.025 129.256 13.9238 129.124C18.0646 128.835 20.5451 126.204 23.8063 124.007C25.1476 133.257 35.7097 136.925 43.37 133.774C48.852 131.519 51.5917 127.784 54.4627 122.774C58.0326 130.46 70.7919 138.626 77.7926 130.168C78.7873 128.967 79.4503 127.521 79.9912 126.061C80.8857 123.647 81.5617 121.062 81.2289 118.46C80.6599 114.012 77.543 109.951 76.1474 105.724C74.5282 100.82 74.6049 94.6609 76.0506 89.7011C76.9917 86.4723 79.19 83.5114 81.6905 81.3407C82.9569 80.2413 84.6751 79.3635 86.3293 80.1321C89.547 81.6273 91.5488 85.6869 92.7191 88.8795C95.5706 96.6591 96.8853 105.302 93.5869 113.12C92.251 116.286 88.3644 117.586 86.6908 120.72C84.4751 124.87 85.4403 131.373 89.5563 133.976C92.1808 135.637 95.2535 135.744 98.2287 136.127C98.2287 138.548 98.3358 141.401 99.6314 143.522C102.913 148.893 110.171 149.351 114.565 145.335C116.235 143.809 117.01 142.032 117.428 139.824C117.6 138.919 117.452 136.94 118.116 136.279C118.872 135.526 121.198 135.723 122.23 135.51C125.287 134.877 128.172 133.236 129.399 130.169C131.128 125.847 130.568 121.206 127.264 117.852C125.863 116.431 123.736 115.514 122.716 113.728C120.007 108.983 120.079 103.155 120.873 97.9183C121.626 92.9508 123.098 87.339 126.197 83.3333C127.409 81.7667 129.157 79.7112 131.305 79.861C134.3 80.0699 136.806 83.6732 138.295 86.0038C141.815 91.5126 141.858 100.768 139.533 106.751C137.771 111.287 134.616 115.69 134.737 120.72C134.894 127.239 139.138 133.786 146.029 133.651C148.773 133.597 151.518 132.322 153.895 131.036C155.812 129.998 157.498 128.654 158.802 126.883C159.79 125.541 160.48 123.852 161.76 122.774C162.304 125.883 165.004 129.092 167.407 130.913C174.069 135.963 183.598 136.9 189.189 129.758C190.489 128.098 191.825 126.182 192.013 124.007C195.416 126.174 197.798 128.949 202.098 129.134C204.262 129.227 206.476 128.573 208.35 127.498C216.187 123.005 217.528 114.29 214.515 106.135C212.432 100.491 208.023 98.7848 203.307 95.9455C195.952 91.5156 187.737 87.3686 182.679 80.0465C176.84 71.594 177.279 61.0228 175.435 51.2871C174.528 46.4973 173.611 42.2731 170.544 38.3456C169.154 36.5667 167.578 35.0583 165.592 33.9868C159.421 30.6556 151.264 32.3732 146.23 37.1316C143.783 39.4454 142.468 42.6494 139.776 44.7344C135.219 48.2652 127.489 51.3316 122.028 48.3446C121.038 47.8035 120.206 47.0365 119.5 46.1518C114.194 39.5012 122.17 34.0747 122.8 27.6637C123.458 20.9622 118.644 16.5577 114.162 12.4275C112.693 11.0733 111.295 9.28986 109.523 8.354C110.448 6.92977 111.58 5.66702 111.513 3.83462C111.439 1.79702 109.583 0.807386 107.773 0.847638ZM108.073 2.68182C109.333 2.73996 110.49 3.55907 109.436 5.06724C109.035 5.64169 108.532 6.1479 108.112 6.71045C107.571 6.52156 107.185 6.30421 106.789 5.86625C106.523 5.57292 106.25 5.23156 106.095 4.86156C105.451 3.3261 106.814 2.62362 108.073 2.68182ZM107.91 9.77963C109.637 9.73258 112.241 12.7659 113.355 13.9003C117.274 17.8909 122.881 22.2728 120.8 28.6907C118.761 34.9798 111.577 35.3888 108.112 40.3999H107.708C104.384 34.987 96.1677 35.0654 94.8939 27.869C93.8074 21.7322 99.2574 17.4337 103.069 13.6926C104.153 12.629 106.304 9.82331 107.91 9.77963ZM159.52 34.0357C161.056 34.1082 162.566 34.4279 163.979 35.0335C169.705 37.4881 172.322 43.4098 173.418 49.2329C175.056 57.935 175.131 66.9413 178.235 75.3215C182.793 87.63 196.601 93.9321 207.14 99.8308C212.085 102.598 214.084 108.663 214.189 114.146C214.243 117.033 213.432 120.655 211.672 122.979C206.831 129.371 197.757 128.297 193.137 122.328C191.947 120.791 192.631 117.298 192.328 115.379C192.067 113.728 190.716 109.769 188.386 111.087C184.476 113.298 189.773 119.381 190.552 121.953C190.934 123.214 190.184 124.948 189.641 126.061C188.027 129.37 185.45 131.951 181.929 132.958C174.105 135.193 165.565 129.121 163.059 121.747C162.263 119.405 164.79 116.26 164.911 113.736C164.97 112.503 164.194 110.932 162.768 111.157C159.962 111.6 159.932 116.16 160.349 118.255C160.515 119.09 160.988 120.079 160.718 120.925C160.344 122.095 159.398 123.199 158.735 124.212C155.019 129.89 144.493 136.05 139.123 128.731C137.117 125.998 135.968 121.854 136.406 118.46C136.926 114.431 139.81 110.55 141.177 106.751C143.883 99.2349 143.113 89.134 137.934 82.9223C136.253 80.9052 134.365 78.8809 131.709 78.3359C127.818 77.5374 124.386 82.555 122.963 85.5928C118.864 94.3425 117.668 103.908 120.616 113.12C115.909 109.743 112.417 104.573 110.416 99.1505C109.981 97.9731 109.536 93.3601 107.912 93.48C106.428 93.5897 105.782 98.5306 105.35 99.7668C103.5 105.056 99.7144 110.089 95.2037 113.325C98.5728 104.429 97.251 94.0633 93.034 85.5928C91.367 82.2446 87.9712 77.4001 83.7074 78.4518C81.1758 79.0763 79.1877 81.3382 77.6182 83.3333C72.8907 89.3425 72.0905 99.3929 74.6422 106.546C76.1252 110.703 78.9672 114.666 79.5873 119.077C80.0127 122.103 78.7973 126.052 77.0975 128.525C71.8494 136.161 60.9352 129.877 57.2758 124.007C56.6361 122.981 55.6317 121.896 55.2872 120.72C55.0531 119.92 55.4671 119.037 55.6302 118.255C56.0465 116.261 56.1476 111.377 53.2526 111.133C51.8222 111.014 51.056 112.478 51.0499 113.736C51.0379 116.221 53.6605 119.311 53.0288 121.542C50.6546 129.929 40.1828 136.082 32.0756 132.157C29.2998 130.813 24.3414 125.331 25.4714 121.747C26.2844 119.169 31.5108 113.309 27.6374 111.039C25.359 109.704 23.8983 113.777 23.6216 115.379C23.2908 117.294 24.0259 120.837 22.912 122.36C22.1628 123.385 20.9694 124.196 19.9743 124.957C11.6218 131.344 1.6488 123.693 1.83349 113.941C1.91467 109.655 3.29908 104.453 6.47962 101.472C9.45424 98.6836 14.0413 96.9807 17.5543 94.9549C23.2002 91.6987 28.9276 87.9557 33.2273 82.9223C39.55 75.5205 40.4265 65.5538 41.5235 56.2174C42.305 49.5655 43.3679 42.048 48.6141 37.3779C54.2924 32.3235 63.141 33.4341 68.5809 38.3812C71.8291 41.335 73.7874 45.326 77.2534 48.1861C82.5434 52.5516 89.2323 53.668 95.0017 57.013C103.052 61.6808 106.798 70.0864 107.506 79.2246H108.313C108.685 70.4037 113.35 61.3955 121.019 57.103C126.898 53.813 133.663 52.5798 138.97 48.1396C142.179 45.4541 143.954 41.8651 146.854 38.9968C150.062 35.8232 154.911 33.8181 159.52 34.0357ZM98.8338 35.6751C101.113 37.0963 104.746 38.1521 106.337 40.4029C107.443 41.9684 107.281 44.0555 108.112 45.7408C108.489 44.1472 108.564 42.4566 109.418 41.0161C110.892 38.532 114.686 37.0699 117.187 35.8805C115.158 42.2352 117.143 49.1537 124.246 50.897C126.792 51.5217 128.981 50.8755 131.507 50.6708V50.8765C124.381 53.8541 117.112 56.1378 112.379 62.7906C110.312 65.6963 109.718 69.3135 107.91 72.2404C106.759 68.8071 105.53 65.5329 103.376 62.5853C98.5067 55.9204 90.7086 53.5199 83.5058 50.4655V50.2602C90.1082 51.8019 98.2609 51.0773 99.7483 42.6593C100.19 40.1612 98.6277 37.9763 98.8338 35.6751ZM155 44.2287C154.31 44.2124 153.604 44.2664 152.886 44.3984C145.866 45.6874 144.898 54.1802 141.591 59.2989C140.326 61.2564 138.632 63.9486 135.944 63.7981C134.412 63.7124 132.525 61.5415 130.966 63.0853C129.779 64.2609 131.339 65.6675 132.516 65.8335C134.85 66.1625 138.032 65.5371 139.978 64.1837C144.21 61.2404 145.633 55.4416 148.075 51.0818C150.073 47.5152 152.967 45.3517 157.121 46.5467C158.144 46.8408 159.091 47.3976 159.945 48.0332C163.828 50.9228 164.73 56.2161 165.474 60.7368C166.586 67.49 167.621 75.1079 171.128 81.0734C178.022 92.8005 191.088 97.5061 202.098 104.205C206.912 107.134 210.681 111.939 208.172 117.844C207.444 119.557 205.32 122.007 203.191 121.507C202.255 121.288 201.452 120.249 200.686 119.701C199.689 118.99 197.162 117.754 196.591 119.696C195.545 123.257 202.4 123.614 204.316 123.224C210.671 121.929 212.993 113.093 209.401 107.983C207.206 104.861 203.632 103.087 200.484 101.163C192.636 96.367 183.295 93.1617 176.904 86.2077C171.695 80.5389 169.623 73.1374 168.3 65.6658C167.526 61.2952 167.218 56.6928 165.63 52.5186C163.878 47.9111 159.831 44.3416 155 44.2277V44.2287ZM61.4617 44.2379C60.8505 44.2316 60.1997 44.2815 59.505 44.3926C53.6873 45.3252 50.5579 50.0374 49.3785 55.6008C47.6676 63.6711 47.1841 72.1269 43.5218 79.6352C38.5815 89.764 27.9906 94.198 18.7644 99.2923C14.6835 101.546 9.93287 103.865 6.93118 107.573C2.12766 113.505 6.08815 124.138 14.1253 123.355C15.5135 123.22 21.2303 121.646 19.2446 119.142C17.6974 117.19 14.7148 120.465 13.5203 121.213C11.9953 122.167 9.89794 120.644 8.9477 119.486C4.90931 114.566 7.77623 108.667 12.1085 105.391C23.12 97.0627 37.0262 94.0323 44.6961 81.4841C47.8746 76.2836 49.2626 69.4072 50.172 63.407C50.9199 58.4733 51.4759 52.4779 55.2775 48.8576C56.1494 48.0273 57.1979 47.3174 58.2948 46.8369C68.1853 42.5054 69.5265 58.0186 74.4329 62.7719C76.5167 64.7908 81.828 67.0954 84.7119 65.6011C86.0289 64.9188 85.8651 63.2671 84.513 62.7377C82.9245 62.1157 81.6844 63.4401 80.2788 63.7906C79.0489 64.0973 77.3268 63.1681 76.4652 62.3411C70.8799 56.9788 70.6295 44.33 61.4617 44.2379ZM84.1105 64.0233V64.4339L82.4972 64.2286L84.1105 64.0233ZM131.911 64.0233H133.927V64.2286L131.911 64.4339V64.0233ZM108.112 96.4801C109.097 103.923 114.886 110.053 120.213 114.701C122.68 116.854 125.963 118.124 127.605 121.13C129.47 124.546 128.962 130.413 125.457 132.635C123.292 134.007 120.254 134.072 117.792 134.072C117.739 133.392 117.67 132.656 117.413 132.018C115.67 127.672 109.917 133.354 114.365 135.527C114.948 135.811 115.542 135.891 116.179 135.921C116.179 138.099 116.286 140.813 114.998 142.692C111.9 147.211 104.626 146.989 101.333 142.897C100.417 141.759 98.9913 137.652 99.8965 136.247C100.926 134.65 103.741 135.188 103.225 132.223C102.918 130.462 100.773 129.9 99.4601 130.92C98.5027 131.663 98.2779 132.922 98.2287 134.072C95.6425 134.072 92.5854 133.933 90.366 132.407C87.1398 130.188 86.6633 124.652 88.2104 121.336C89.5339 118.5 92.439 117.163 94.8002 115.378C97.2299 113.541 99.3614 111.234 101.448 109.011C103.548 106.773 105.219 104.046 106.412 101.205C107.042 99.7033 107.285 97.8591 108.112 96.4801ZM189.19 112.297C190.668 114.131 190.803 116.377 190.803 118.666H190.601C189.926 117.013 187.913 114.014 189.19 112.297ZM27.0334 112.503C27.4716 114.557 26.2601 116.66 25.4197 118.46C24.7392 116.808 25.3989 113.323 27.0334 112.503ZM162.97 112.503C163.529 114.43 162.749 116.422 162.163 118.255H161.962C161.815 116.362 161.392 113.907 162.97 112.503ZM53.051 112.708C54.5088 114.014 54.134 116.283 54.0596 118.049H53.8577C53.346 116.448 52.3624 114.38 53.051 112.708ZM17.5543 120.103L15.9406 121.336V121.13L17.5543 120.103ZM198.669 120.309L199.879 121.13V121.336L198.669 120.309ZM100.753 132.06C101.506 132.205 102.246 133.507 100.844 134.125C100.525 134.266 100.181 134.259 99.8424 134.278C99.8424 133.872 99.8172 133.451 99.8643 133.048C99.934 132.449 100.164 132.159 100.435 132.074C100.537 132.042 100.645 132.039 100.753 132.06ZM115.337 132.067C115.662 132.12 115.972 132.404 116.109 133.048C116.195 133.448 116.175 133.871 116.179 134.277C115.833 134.241 115.508 134.223 115.187 134.07C113.791 133.409 114.309 132.28 115.014 132.086C115.12 132.057 115.229 132.049 115.337 132.067Z" fill="black"/>
</svg>